<svg width="1080" height="1080" viewBox="0 0 1080 1080" fill="none" xmlns="http://www.w3.org/2000/svg">
<g clip-path="url(#clip0_0:3)">
<path fill-rule="evenodd" clip-rule="evenodd" d="M453.452 390.318C456.534 381.653 466.955 385.021 465.794 394.125C465.098 399.578 462.428 405.337 460.03 410.116C458.077 414.006 455.849 417.803 452.829 420.719C458.205 426.329 463.786 431.735 469.508 436.868C475.752 442.467 482.318 447.629 489.105 452.374C495.056 456.534 501.276 460.221 506.885 464.968C512.101 469.382 516.853 474.69 519.271 481.619C521.847 488.998 520.727 496.619 518.831 503.993L518.613 504.827C516.675 512.133 513.321 520.939 517.972 527.822C520.34 531.326 523.782 533.808 526.754 536.61C529.396 539.099 531.876 541.807 534.15 544.716C539.109 551.056 543.142 558.19 545.687 566.14L545.914 566.862C548.096 573.899 549.69 582.519 546.742 589.428C545.897 591.409 543.169 590.765 542.695 588.837C541.625 584.468 541.681 579.893 540.783 575.462C539.848 570.854 538.293 566.481 536.263 562.343C532.334 554.338 527.012 547.5 520.726 541.719L518.844 540.007C513.94 535.505 509.434 530.729 508.438 523.279C507.373 515.308 510.228 507.714 512.064 500.17C513.344 494.912 513.762 489.872 512.379 485.12C510.69 488.204 508.385 491.131 506.562 493.742C502.932 498.944 499.267 504.114 495.612 509.294C491.864 514.605 488.209 520.001 484.728 525.536C483.171 528.012 481.631 530.502 480.096 532.996C478.941 534.87 477.331 536.742 476.073 538.653C476.379 539.676 476.355 540.854 475.801 541.691C469.128 551.776 459.634 530.733 457.158 525.417C452.116 514.59 448.363 503.088 443.304 492.263C438.062 481.042 432.093 470.12 425.44 459.876C421.415 453.68 416.905 447.859 413.224 441.466C404.551 450.262 393.138 456.159 382.656 461.506C371.138 467.38 359.173 472.179 347.364 477.275L343.876 478.791C323.529 487.672 302.685 497.43 285.773 513.206C265.9 531.745 254.143 557.584 245.39 584.341C235.314 615.145 226.979 646.779 219.208 678.394C215.232 694.57 211.459 710.818 207.912 727.119C204.786 741.48 202.195 755.985 198.577 770.198C205.915 769.908 214.284 773.085 220.549 774.003C249.102 778.183 277.27 784.847 304.227 796.384C307.557 797.809 308.52 801.529 307.795 804.544C309.716 803.937 311.634 803.323 313.555 802.72C311.451 799.114 312.455 792.668 312.62 788.672L312.63 788.397C312.8 783.072 313.317 777.741 313.652 772.425C314.29 762.292 315.12 752.234 316.224 742.159L316.506 739.64C317.757 728.679 318.682 717.654 320.047 706.711L320.208 705.459C319.554 702.659 318.792 699.894 317.992 697.141C315.86 689.807 312.851 682.903 310.215 675.8C309.904 674.964 310.969 674.483 311.466 674.985C315.932 679.478 319.479 685.178 322.328 691.139C322.378 690.858 322.421 690.576 322.473 690.295L322.798 688.505C323.6 684.139 324.575 679.546 326.97 676.005C327.225 675.629 327.729 675.55 327.97 676.005C330.261 680.343 330.518 685.835 330.87 690.77C331.269 696.353 331.319 702.007 331.249 707.605C331.112 718.546 330.422 729.517 329.873 740.44C329.334 751.174 328.276 761.771 326.912 772.399L326.653 774.393C325.986 779.452 325.44 784.573 324.561 789.597L324.313 790.965C323.842 793.457 323.553 796.97 322.618 799.888C346.694 792.377 370.807 785.037 394.966 777.826C412.427 772.614 429.907 767.48 447.378 762.313C448.3 760.454 449.448 758.718 450.881 757.167C455.602 752.054 461.857 749.773 467.595 753.708C468.061 754.029 468.1 754.847 467.595 755.157C466.495 755.829 465.394 756.518 464.312 757.236L474.803 754.058C482.645 751.681 490.58 748.711 498.607 747.054C513.39 738.894 529.289 732.987 544.862 727.15L546.697 726.456C554.671 723.415 562.918 720.011 571.156 718.326C577.188 717.092 584.267 718.581 586.692 725.492C589.763 727.755 592.651 730.415 595.439 733.031C597.455 734.921 599.386 736.93 601.351 738.887L601.713 739.243C603.319 740.802 604.592 741.845 604.986 744.326C605.189 745.608 604.461 747.34 603.048 747.171C598.724 746.653 595.209 741.047 592.276 737.7C590.011 735.113 587.728 732.437 585.66 729.594C584.454 730.328 582.802 730.196 582.035 728.571C578.056 720.144 567.158 725.983 561.127 727.982L552.489 730.841C548.17 732.273 543.852 733.713 539.542 735.177C527.697 739.2 515.909 743.703 503.956 747.398C505.026 748.713 504.878 751.052 502.847 751.942C493.49 756.048 483.226 758.171 473.505 760.989C467.368 762.769 461.234 764.56 455.103 766.362C454.052 768.267 453.295 770.422 452.977 772.931C451.807 782.155 454.064 792.797 456.262 801.719L456.593 803.05C458.4 810.222 461.059 819.015 466.591 823.544C467.942 824.648 469.662 825.417 471.395 825.591C482.226 819.356 493.056 813.121 503.892 806.898C505.9 805.745 507.754 807.306 508.205 809.162C512.026 808.461 515.838 807.355 519.31 806.037C525.144 803.821 529.7 799.595 535.169 796.671C545.752 791.017 556.559 797.963 566.035 803.243L568.218 804.444C572.468 806.75 581.308 811.179 583.346 804.873C585.318 798.771 579.084 792.251 575.057 789.505C570.258 786.231 564.669 784.478 559.245 783.019C556.147 782.185 553.012 781.505 549.858 781.008C546.281 780.445 542.586 780.53 539.141 779.232C537.429 778.588 537.166 775.547 539.141 775.045C544.444 773.696 550.772 775.168 556.305 776.672L559.198 777.469C564.772 779 570.401 780.92 575.479 783.972C579.171 786.192 583.068 789.565 585.614 793.693C587.825 791.396 590.576 791.474 593.443 792.326L594.998 792.809C597.567 793.606 599.65 794.154 602.149 793.602C602.484 791.568 602.822 789.533 603.185 787.498C606.747 767.496 610.654 747.57 614.964 727.75C622.4 693.564 631.003 659.753 640.703 626.288L641.676 622.943C643.913 615.288 645.714 606.949 649.32 599.917C652.732 593.268 658.197 589.438 664.69 587.41C672.058 585.108 679.801 583.904 687.318 582.349C688.995 582.003 690.676 581.674 692.354 581.334C690.936 578.469 689.877 575.218 688.924 572.723L688.757 572.29C686.708 567.066 684.868 561.748 683.091 556.401L681.761 552.381C678.553 542.702 675.24 533.182 670.729 524.129C665.98 514.601 659.68 506.812 651.827 500.365C635.815 487.22 616.516 480.515 600.986 466.467C600.35 465.891 601.166 464.907 601.812 465.271C612.298 471.165 623.618 475.172 634.525 479.97L636.677 480.919C645.297 484.742 654.052 488.903 661.514 495.091C669.833 501.992 676.385 510.563 681.31 520.754C686.163 530.8 689.267 542.044 692.692 552.775L693.607 555.634C694.989 559.921 696.415 564.196 698.05 568.368C699.347 571.68 701.769 575.461 702.87 579.245C705.881 578.661 708.892 578.075 711.907 577.512C777.199 565.319 843.221 558.154 909.39 556.059C911.978 555.977 913.317 558.74 912.936 561.265C906.586 603.264 900.943 645.406 894.751 687.436C892.048 705.78 889.292 724.11 886.471 742.431C885.042 751.713 883.389 760.96 882.036 770.256C880.943 777.763 880.15 785.328 878.274 792.662C876.591 799.237 874.009 805.577 869.768 810.594C865.197 816.001 858.816 818.619 852.394 819.855C836.089 822.994 819.366 824.275 802.929 826.366L715.419 837.502C716.697 850.503 716.793 863.302 716.206 876.455L715.872 883.635C715.599 889.41 715.272 895.194 714.53 900.91C713.6 908.08 710.668 914.151 706.348 919.506C702.382 924.425 697.564 928.621 692.877 932.642C688.012 936.817 682.985 940.847 677.265 943.429L676.522 943.759C671.504 945.95 662.091 949.344 655.232 948.104C656.128 953.128 657.863 958.531 656.325 963.502C655.612 965.811 652.912 966.963 651.259 964.998C647.983 961.105 647.727 955.963 646.951 950.884C646.144 945.598 645.448 940.294 644.83 934.977C643.634 924.696 642.703 914.321 642.419 903.953C642.127 893.306 642.24 882.644 642.752 872.008C643.016 866.546 643.343 861.088 643.963 855.661C644.227 853.346 644.498 851.03 644.806 848.722C644.919 847.88 645.044 847.042 645.178 846.206L637.324 847.197C625.28 848.701 613.231 850.059 601.102 850.27C599.665 850.294 598.56 849.563 597.838 848.497C597.069 849.899 595.729 850.902 593.81 850.894C576.872 850.823 561.099 844.628 545.693 837.327C537.928 833.646 530.283 829.661 522.506 826.011C515.247 822.605 507.487 820.174 500.403 816.337L481.789 827.257C481.653 827.794 481.477 828.302 481.291 828.727C480.08 831.494 477.69 832.995 475.25 834.126C472.907 835.213 470.481 835.551 468.118 835.276C454.001 843.551 439.881 851.817 425.751 860.064L411.618 868.305C383.46 884.703 355.413 901.371 327.078 917.384L324.992 918.558C315.205 924.048 304.695 929.612 293.834 933.764C293.641 936.839 293.763 939.829 293.993 943.084L294.049 943.793C294.372 947.639 295.067 952.458 292.308 955.196C290.873 956.62 288.31 956.626 287.334 954.479C285.564 950.585 287.153 944.447 287.714 940.218C287.913 938.713 288.156 937.167 288.515 935.667C276.063 939.813 263.235 941.823 250.564 939.495C238.227 937.23 228.672 928.537 220.969 917.905C212.84 906.685 207.063 893.608 203.964 879.591C200.436 863.64 200.206 847.168 200.289 830.829C200.377 813.432 200.952 795.947 202.844 778.666C200.771 778.121 198.473 777.65 196.378 777.812C195.34 779.669 193.328 780.451 191.509 780.21C187.555 785.088 197.586 790.074 200.791 791.322C201.904 791.756 201.785 793.778 200.501 793.717L199.692 793.674C194.739 793.379 189.622 792.433 186.71 787.285C184.376 783.158 185.077 778.269 187.859 774.904C189.697 755.472 194.089 736.549 198.178 717.593C202.19 698.988 206.651 680.502 211.38 662.109L213.501 653.877C220.946 625.037 228.729 595.965 239 568.271C244.129 554.443 250.037 540.869 258.046 528.812C265.511 517.572 274.325 507.955 284.456 499.74C303.342 484.426 325.504 475.172 347.278 466.356L348.253 465.961C359.537 461.396 370.793 456.776 381.949 451.829C391.814 447.455 401.266 441.908 411.085 437.468C410.766 436.82 410.458 436.165 410.162 435.503L409.98 435.674C409.949 435.701 409.918 435.728 409.884 435.753C408.897 436.519 407.443 436.143 406.629 435.284C404.332 432.859 405.11 430.167 406.643 427.652L406.843 427.332C408.719 424.393 410.392 421.285 412.124 418.239L413.208 416.334C416.114 411.246 419.168 406.124 423.043 401.918C424.837 399.969 426.802 398.511 428.884 397.425C428.706 397.004 430.266 396.143 430.709 396.576C437.303 393.877 444.891 394.442 452.081 395.187L453.452 390.318ZM711.184 838.04L702.015 839.206C691.928 840.49 681.837 841.731 671.744 842.961L649.822 845.625C649.767 847.023 649.615 848.39 649.587 849.446C649.444 854.888 649.337 860.333 649.236 865.777C649.033 876.689 649.256 887.612 649.898 898.503C650.521 909.056 651.34 919.611 652.614 930.092L652.875 932.188L653.027 933.29C654.066 933.402 655.088 933.955 655.937 935.09C657.791 937.566 664.505 935.159 667.127 934.115C671.439 932.399 675.5 929.5 679.247 926.592C682.906 923.753 686.201 920.442 689.367 916.955L691.957 914.089C694.534 911.225 697.114 908.174 698.693 904.571C700.834 899.685 701.111 893.688 701.739 888.367C702.512 881.822 703.432 875.277 704.405 868.765L711.184 838.04ZM445.011 769.337L444.06 769.617C409.512 779.885 375.015 790.455 340.361 800.27C323.212 805.128 305.981 809.632 288.811 814.397L286.031 815.175C272.485 819.004 258.777 823.613 248.404 834.602C248.021 835.006 247.465 834.385 247.825 833.955C259.005 820.644 274.905 815.009 290.171 810.124C292.993 809.221 295.818 808.339 298.641 807.441C277.879 799.163 256.79 791.961 235.213 786.824C229.657 785.501 224.037 784.53 218.485 783.202C214.614 782.275 210.833 780.936 207.002 779.825L203.989 778.977L203.949 789.629C203.898 804.716 203.922 819.79 204.61 834.875L204.741 837.669C205.544 854.456 206.797 871.592 212.123 887.421C216.451 900.283 223.35 912.401 232.371 921.77C236.936 926.51 241.844 930.2 247.91 932.022C253.543 933.713 259.445 933.911 265.236 933.46C293.011 931.293 317.735 914.417 341.862 900.444C381.326 877.59 420.794 854.747 460.298 831.981C459.23 831.164 458.224 830.223 457.31 829.166C452.012 823.047 449.218 814.67 447.383 806.557C445.429 797.922 444.261 788.667 444.125 779.752L445.011 769.337ZM495.275 840.803C495.624 840.594 496.028 840.856 496.044 841.297C496.166 844.671 494.499 848 493.253 851.04L493.121 851.364C491.608 855.13 489.951 858.846 488.237 862.503C484.811 869.809 481.251 877.038 477.535 884.164C470.064 898.5 461.761 912.232 451.946 924.714C449.73 927.534 446.084 923.918 447.506 920.882C454.365 906.247 462.361 892.427 470.591 878.729C474.711 871.87 478.829 865.005 482.989 858.177C484.725 855.328 486.483 852.489 488.289 849.693L489.378 848.021L495.275 840.803ZM905.014 564.441C870.346 565.612 835.718 568.141 801.214 572.104C769.126 575.79 737.155 580.696 705.364 586.812C698.724 588.089 692.092 589.419 685.469 590.801L681.496 591.636C674.871 593.041 666.778 593.62 660.88 597.578C654.661 601.751 652.981 610.473 650.912 617.665C648.479 626.123 646.108 634.605 643.802 643.108C634.641 676.868 626.274 710.92 618.809 745.198C615.104 762.212 611.816 779.321 608.352 796.398C605.274 811.57 601.878 826.57 598.331 841.591C598.768 841.21 599.304 840.921 599.952 840.767C617.569 836.574 635.552 834.752 653.433 832.436L655.163 832.21C673.66 829.777 692.157 827.362 710.665 825.035L833.203 809.621C840.43 808.712 848.172 808.589 855.205 806.42C867.163 802.73 869.965 787.778 871.972 775.87L872.032 775.51C878.081 739.532 882.895 703.24 888.536 667.171L905.014 564.441ZM601.182 799.767C596.425 799.416 589.914 794.542 586.304 794.892C588.199 798.448 589.054 802.504 587.962 806.835C584.923 818.888 571.179 812.652 564.559 808.97C559.131 805.949 553.889 802.254 547.88 800.839C541.072 799.238 536.46 802.266 530.709 805.756C525.985 808.622 520.84 810.681 515.55 811.746C512.736 812.313 510.064 812.373 507.397 812.152C507.236 812.299 507.056 812.434 506.849 812.555L505.438 813.384C511.818 813.71 518.316 815.913 524.254 817.929C530.406 820.017 536.446 822.535 542.454 825.109L548.364 827.65C562.942 833.894 578.033 839.824 593.81 839.772C594.944 839.769 595.874 840.12 596.605 840.693L601.182 799.767ZM574.565 762C579.265 761.357 583.603 762.046 587.359 765.468C591.888 769.595 594.931 776.439 601.442 776.888C603.34 777.019 603.782 780.005 601.895 780.629C597.048 782.234 593.124 779.301 589.822 775.493L587.601 772.898C584.338 769.119 581.329 766.197 575.791 766.423C569.861 766.665 563.921 768.198 558.029 768.977C551.355 769.86 544.683 770.612 537.988 771.262C537.677 771.292 537.624 770.744 537.915 770.663L545.414 768.576L574.565 762ZM570.028 740.508L570.803 740.422C577.628 739.68 583.87 739.652 589.965 743.758L591.134 744.549C596.63 748.285 602.611 752.686 606.048 758.735C606.61 759.726 605.681 760.89 604.74 760.638C598.135 758.865 593.307 753.445 587.752 749.388C581.518 744.836 575.079 745.587 567.971 746.294C561.089 746.979 554.211 747.92 547.397 749.203C540.994 750.407 534.57 752.309 528.103 752.915L528.104 752.9C527.365 752.899 526.944 751.658 527.697 751.237C534.261 747.571 541.863 745.836 549.003 744.161L570.028 740.508ZM777.359 665.058C776.699 661.529 780.58 659.892 782.379 662.692L782.762 663.282C786.648 669.238 792.269 676.711 791.983 684.285C795.399 684.368 798.941 686.69 800.272 690.138C800.887 691.733 801.096 693.624 800.96 695.58C804.065 695.85 807.451 698.131 809.35 700.351C812.497 704.031 812.745 709.232 810.488 713.533C805.566 722.907 794.814 726.317 785.737 727.079L785.413 727.105C776.038 727.83 762.528 727.634 756.1 718.637C749.899 709.959 756.752 702.933 763.78 699.117C761.951 697.249 761.003 694.57 761.894 691.744C763.458 686.778 768.981 684.859 772.101 681.407C775.905 677.198 778.419 671.424 777.417 665.388L777.359 665.058ZM782.511 672.69C781.477 677.715 778.937 682.312 775.4 685.954C774.047 687.347 772.567 688.587 770.995 689.652L770.806 689.775C769.41 690.651 765.981 692.293 766.245 694.258C766.516 696.279 772.104 699.441 773.627 699.442C773.974 699.442 774.17 700.048 773.816 700.223C771.056 701.587 768.645 702.171 765.946 700.73C764.143 702.789 762.391 704.92 760.656 707.032C757.588 710.77 758.638 714.716 762.263 717.498C768.089 721.97 776.944 721.861 783.741 721.536C790.582 721.209 797.894 719.502 803.238 714.405L803.471 714.179C806.375 711.29 809.028 706.394 804.58 703.612C802.839 702.522 800.957 702.586 799.303 702.056C797.756 705.449 795.245 708.167 792.182 708.691C789.707 709.114 788.002 705.634 790.254 703.97L790.76 703.618C793.587 701.599 796 698.49 795.936 694.441C795.893 691.63 792.383 688.08 790.097 690.721L789.993 690.848C788.079 693.26 784.71 690.22 785.968 687.548L786.029 687.426L782.511 672.69ZM336.326 532.931C336.317 532.327 337.076 532.101 337.341 532.624C341.782 541.362 344.103 552.074 346.469 561.701C348.947 571.786 350.947 581.974 352.744 592.236C356.383 613.016 358.322 633.677 358.454 654.856C358.472 657.88 354.067 658.684 353.636 655.586C350.776 634.984 348.036 614.362 345.153 593.766C343.703 583.407 342.015 573.088 340.4 562.76L336.326 532.931ZM380.288 548.152C379.961 546.946 381.529 546.543 381.93 547.645C390.841 572.113 393.859 599.843 388.138 625.656C387.262 629.605 382.092 627.894 382.752 623.995L380.288 548.152ZM495.24 526.41C495.195 525.508 496.242 525.366 496.636 525.987C500.859 532.642 502.611 541.554 510.019 544.993C513.718 546.71 517.88 546.411 521.148 549.311C523.333 551.251 525.009 554.313 523.369 557.251C522.84 558.2 521.359 558.676 520.641 557.644C519.594 556.142 519.039 554.343 517.616 553.216C515.608 551.627 512.901 551.529 510.6 550.782C507.622 549.817 504.998 548.127 502.849 545.617L495.24 526.41ZM565.786 415.416C566.221 415.168 566.639 415.326 566.917 415.747C567.315 416.347 567.266 416.93 566.779 417.342C567.429 418.828 568.197 422.551 568.307 423.093C568.752 425.291 569.225 427.475 569.72 429.658C570.718 434.06 571.593 438.496 572.592 442.9C573.651 447.568 574.913 452.186 576.317 456.738C576.408 457.033 576.508 457.333 576.612 457.639L576.772 458.1L576.811 458.03C577.097 457.525 577.691 457.878 577.621 458.411C577.555 458.897 577.467 459.381 577.393 459.867L577.541 460.302C578.459 463.068 579.088 465.98 577.403 468.421C576.772 469.333 576.078 469.874 575.214 470.034C573.827 475.146 572.088 480.162 570.226 484.98L569.68 486.387C566.941 493.416 564.02 500.353 559.658 506.338C554.897 512.872 548.347 517.333 544.199 524.492C542.269 527.823 540.927 531.324 539.837 535.085L539.427 536.513C538.653 539.173 537.761 541.751 535.53 543.312C534.818 543.809 533.751 543.651 533.177 542.972C528.602 537.559 533.392 527.451 536.15 522.211C539.985 514.923 545.535 510.261 551.092 504.762C557.083 498.836 560.904 490.907 564.6 483.097C566.864 478.312 569.049 473.424 571.35 468.618C568.946 466.242 568.176 461.521 567.362 458.24L567.288 457.946C565.942 452.691 564.872 447.3 564.196 441.885C563.546 436.679 563.275 431.547 563.447 426.312L563.497 424.978L565.786 415.416ZM574.724 440.195C574.193 439.38 575.072 438.458 575.801 438.628C580.232 439.653 584.563 442.652 588.54 445.078L588.965 445.335C592.139 447.25 595.333 449.595 596.999 453.315C598.812 457.357 598.663 462.014 598.416 466.407L598.392 466.818C598.089 472.086 598.041 477.56 597.044 482.734C596.534 485.381 594.39 486.127 592.557 485.501C590.375 493.205 584.249 498.88 579.773 504.959C574.067 512.708 575.141 523.171 575.737 532.504C575.978 536.283 571.776 537.357 569.612 535.341L564.624 530.707C563.793 529.934 562.963 529.159 562.136 528.381C561.427 527.714 560.725 527.042 560.029 526.362L558.989 525.334C558.527 524.873 556.492 522.33 555.897 522.224C554.456 521.968 551.032 526.216 549.86 527.549L549.711 527.715C547.506 530.134 545.513 532.737 543.656 535.498C543.315 536.005 542.647 535.584 542.891 534.998C544.555 531.013 546.489 527.203 548.785 523.636L549.249 522.926C550.777 520.623 552.828 516.557 555.525 515.877C558.818 515.047 562.107 518.74 564.503 520.79L564.654 520.919C565.794 521.876 566.921 522.849 568.046 523.829C567.928 516.88 568.713 509.859 571.92 503.871C574.182 499.647 577.571 496.519 580.47 492.89C583.699 488.849 585.384 483.882 588.306 479.673C588.683 479.132 589.201 478.84 589.763 478.748C589.875 475.364 590.321 471.947 590.665 468.6L590.765 467.598C591.113 463.961 591.935 459.519 590.344 456.114C588.84 452.897 585.39 450.626 582.835 448.443L580.749 446.634L574.724 440.195ZM430.93 401.742C429.596 402.605 428.35 403.678 427.218 405.02C423.658 409.245 421.112 414.503 418.634 419.561C417.3 422.285 416.014 425.039 414.669 427.756C414.085 428.939 413.483 430.108 412.875 431.276C412.594 431.814 411.758 432.883 411.344 433.542C411.804 434.263 412.28 434.973 412.765 435.676C412.95 435.944 425.724 451.507 430.176 457.598C436.994 466.928 443.088 476.783 448.298 487.331C453.4 497.661 457.284 508.598 462.01 519.127C464.376 524.399 467.018 529.633 470.385 534.195C470.515 534.373 470.653 534.541 470.786 534.717C472.071 530.833 475.364 526.675 476.982 524.288L477.133 524.062C480.801 518.531 484.675 513.167 488.633 507.894C492.249 503.079 495.956 498.367 499.753 493.734L501.181 492C503.826 488.804 507.186 484.021 511.059 481.738C510.644 480.911 510.164 480.092 509.611 479.285C505.983 473.981 500.854 470.133 495.793 466.66L492.511 464.427C480.14 455.994 467.961 447.171 457.22 436.214C451.538 430.417 445.934 424.344 441.158 417.582L439.469 415.191L430.93 401.742ZM451.573 397.567C445.779 398.111 439.523 397.982 434.169 400.093C438.929 405.126 443.453 410.56 448.101 415.677C448.514 412.216 449.36 408.797 450.076 405.422" fill="black"/>
</g>
<path fill-rule="evenodd" clip-rule="evenodd" d="M585.47 383.455C578.817 385.253 571.676 385.414 564.895 383.557C558.744 381.872 552.428 378.164 547.901 373.257C543.88 368.898 541.275 363.601 541.378 357.947C541.389 357.301 541.636 356.762 542.017 356.344C542.427 355.894 542.999 355.584 543.612 355.45C544.242 355.312 544.908 355.361 545.476 355.602C545.99 355.819 546.43 356.189 546.705 356.73C547.401 357.583 548.094 358.424 548.789 359.241C554.383 365.688 559.8 370.507 568.212 372.235C572.776 373.173 577.334 372.757 581.516 371.326C585.993 369.794 590.04 367.101 593.211 363.655C594.644 362.097 596.336 361.462 597.991 361.451C599.866 361.439 601.719 362.252 603.115 363.552C604.487 364.829 605.406 366.566 605.489 368.382C605.563 369.976 605.005 371.641 603.523 373.126C598.642 378.019 592.315 381.604 585.47 383.455ZM585.265 302.702C592.085 306.571 602.476 315.594 595.139 325.187C586.504 333.645 574.07 323.947 567.943 319.561C562.262 316.162 555.879 324.904 561.15 328.874C605.424 359.471 623.391 303.714 588.714 298.153C584.896 297.54 583.478 301.505 585.265 302.702ZM521.469 285.676C519.278 284.367 516.699 283.918 513.841 285.132C511.608 286.08 507.692 289.24 504.966 293.394C503.101 296.236 501.779 299.57 502.054 303.042C502.118 303.849 501.799 304.444 501.295 304.883C500.898 305.231 500.323 305.486 499.648 305.565C499.076 305.633 498.434 305.572 497.913 305.42C496.921 305.131 496.396 304.531 496.198 304.04C494.29 299.309 495.112 294.03 497.251 289.267C500.138 282.839 505.38 277.455 508.814 275.719C514.691 272.747 521.625 272.61 527.51 275.638C532.52 278.214 535.653 282.374 538.769 286.614C539.431 287.516 540.088 288.411 540.768 289.29C542.129 291.051 542.265 292.798 541.738 294.296C541.153 295.955 539.664 297.356 537.802 298.089C536.08 298.766 534.082 298.862 532.314 298.166C530.821 297.578 529.45 296.431 528.583 294.487C527.122 291.211 524.688 287.597 521.469 285.676ZM632.793 292.963C631.291 293.693 630.117 293.913 628.452 293.448C627.531 293.189 626.621 292.694 625.908 292.029C625.202 291.37 624.692 290.55 624.494 289.641C624.007 287.397 622.692 285.296 620.817 283.926C619.215 282.756 617.192 282.135 614.949 282.485C612.528 282.863 610.222 284.312 608.633 286.02C608.102 286.592 607.686 287.241 607.268 287.886C606.485 289.092 605.725 290.213 604.645 291.099C604.236 291.436 603.62 291.669 603.022 291.669C602.78 291.669 602.533 291.633 602.299 291.564C599.889 289.307 599.426 287.595 599.504 285.896C599.585 284.115 600.337 282.312 601.553 280.629C604.405 276.682 609.819 273.446 613.473 272.713C618.476 271.709 623.446 272.914 627.43 275.523C631.529 278.207 634.567 282.375 635.514 287.071C635.742 288.202 635.645 289.423 635.183 290.482C634.733 291.516 633.947 292.402 632.793 292.963ZM532.505 243.595C529.502 246.326 525.948 246.749 522.352 247.125C520.355 247.336 518.76 247.507 517.19 247.837C512.877 248.746 508.613 250.115 504.723 252.086C500.657 254.147 496.225 256.633 493.037 259.817C492.279 260.575 491.564 261.37 490.849 262.166C490.196 262.893 489.567 263.593 488.905 264.267C488.144 265.042 487.422 265.854 486.703 266.663C486.259 267.347 486.171 267.515 486.081 267.69C485.947 267.953 485.79 268.247 485.611 268.562C485.366 268.995 485.079 269.468 484.779 269.897C484.278 270.681 484.01 270.897 483.778 270.993C483.393 271.153 483.029 271.232 482.675 271.19C482.343 271.15 482.03 271.001 481.721 270.757C480.179 269.541 479.725 267.546 479.771 265.428C479.842 262.214 481.112 258.655 482.283 256.467C485.005 251.384 488.781 246.1 493.321 242.306C498.501 237.976 504.168 234.698 510.678 232.439C514.723 231.034 519.407 229.745 523.814 229.908C526.987 230.025 530.015 230.905 532.516 233.104C534.052 234.453 534.789 236.372 534.789 238.29C534.789 240.247 534.023 242.214 532.505 243.595ZM638.9 268.603C638.709 268.895 638.444 269.096 638.15 269.217C637.842 269.344 637.498 269.381 637.167 269.329C636.839 269.277 636.526 269.138 636.278 268.925C636.04 268.721 635.859 268.451 635.779 268.12C633.785 259.946 629.914 253.865 621.651 249.944C617.587 248.015 612.913 246.789 608.489 245.812C607.203 245.528 605.844 245.344 604.476 245.157C600.188 244.573 595.87 243.904 593.074 240.668C591.39 238.72 590.683 236.227 591.083 233.948C591.459 231.802 592.803 229.834 595.245 228.655C601.325 225.72 608.881 228.6 615.021 231.053C615.476 231.235 615.924 231.413 616.361 231.586C622.365 233.952 627.842 237.074 632.344 241.54C635.915 245.083 639.225 250.321 640.558 255.709C641.667 260.192 641.406 264.768 638.9 268.603Z" fill="black"/>
<g clip-path="url(#clip1_0:3)">
<path fill-rule="evenodd" clip-rule="evenodd" d="M651.877 307.548C641.935 318.002 625.338 321.002 612.111 315.396C578.147 300.955 594.771 255.913 620.965 243.817C624.237 242.987 628.607 241.018 632.593 240.571C632.953 240.391 633.737 240.912 634.688 240.42C663.571 243.701 670.148 289.328 651.877 307.548ZM542.329 310.224C531.179 325.275 510.448 329.918 493.51 322.921C460.049 309.511 471.917 269.571 494.811 253.912C543.171 235.42 563.141 282.473 542.329 310.224ZM469.793 276.876C469.762 276.861 469.731 276.853 469.699 276.838C469.876 276.759 470.053 276.68 470.229 276.599C470.172 276.751 470.109 276.902 470.054 277.055C469.967 276.994 469.891 276.923 469.793 276.876ZM674.897 260.606C672.167 260.612 668.224 261.069 665.963 262.996C660.39 243.869 639.818 226.166 621.928 239.075C607.839 243.686 597.384 253.911 591.442 267.506C580.729 261.021 563.883 263.791 554.593 272.366C548.509 251.907 533.535 244.743 515.712 243.686C496.259 240.443 476.869 259.669 470.819 275.092C465.789 274.51 458.272 272.881 453.54 276.04C422.826 267.843 369.129 263.324 362.885 267.878C358.435 269.616 355.993 280.304 362.208 280.881C367.624 280.098 361.576 273.049 367.036 272.28C396.125 270.445 424.364 276.406 453.145 278.908C455.714 282.426 464.017 283.602 468.446 282.189C461.47 308.352 476.529 326.152 499.093 331.484C534.033 339.651 564.43 307.845 555.294 274.761C565.878 269.403 578.052 269.633 589.582 272.456C570.315 344.614 684.514 341.376 666.678 265.469C678.547 271.477 681.125 261.819 674.897 260.606Z" fill="black"/>
</g>
<path fill-rule="evenodd" clip-rule="evenodd" d="M374.689 126.958C391.994 107.981 490.237 78.6277 539.941 84.8499L541.432 85.0494C545.398 85.5691 549.307 86.356 553.165 87.4251C565.635 90.434 578.516 94.9902 588.819 102.601C597.421 108.826 624.556 118.994 616.559 135.281C619.524 141.085 620.631 148.257 618.627 153.974C618.374 155.949 617.785 157.768 617.031 159.654C623.367 169.313 628.383 180.237 632.444 190.627C639.54 216.775 643.955 243.988 644.602 270.666C646.753 321.352 641.374 381.895 598.647 414.671C572.836 435.44 532.404 436.138 503.398 410.387C501.751 408.374 494.01 402.943 496.594 401.99C497.362 402.829 498.153 403.646 498.958 404.448C498.921 404.358 498.914 404.269 498.929 404.173L498.172 403.465C496.746 402.102 494.9 400.126 497.003 400.513C497.096 400.624 497.197 400.721 497.297 400.832C497.742 401.108 498.079 401.347 498.341 401.559L498.476 401.67L498.434 401.625C497.222 400.29 496.496 398.929 498.307 399.798L498.547 399.919C499.353 400.795 500.171 401.634 501.005 402.451C500.991 402.354 501.005 402.257 501.056 402.154L500.279 401.378C499.52 400.61 499.636 400.607 500.007 399.986C498.394 397.651 501.404 399.038 501.616 399.949C503.499 399.488 505.152 403.141 506.365 403.586C559.538 445.822 636.702 408.346 635.452 290.656L635.433 288.353C635.068 250.721 632.003 212.042 616.937 177.976C615.472 174.695 613.833 171.503 612.03 168.414C610.787 166.098 609.458 163.841 608.028 161.643C604.025 161.309 600.073 160.552 596.179 159.379C594.842 159.03 593.519 158.644 592.198 158.191C572.883 159.28 553.999 160.464 534.63 161.586L528.58 161.976C512.172 163.065 495.204 164.811 481.963 175.296C468.971 184.842 468.912 203.666 457.791 214.146C441.933 225.267 441.817 235.295 438.763 251.683C438.989 264.036 447.28 281.985 432.066 287.184C434.633 290.966 431.055 289.149 430.773 287.823C430.745 287.83 430.716 287.838 430.694 287.838C432.982 292.231 429.619 289.464 429.322 288.053C429.142 288.001 428.963 287.867 428.783 287.682C431.087 291.53 427.362 288.836 427.583 288.135C423.13 281.063 413.966 279.965 407.506 281.839C407.427 282.092 407.14 282.114 406.96 281.98C379.492 288.13 386.579 346.881 414.728 341.202C415.933 340.948 415.904 341.546 416.144 341.603C415.493 339.839 417.326 340.557 417.307 340.927L417.419 340.922C417.507 340.914 417.471 340.904 417.537 340.927C416.908 337.32 420.446 342.546 420.167 342.761C420.275 342.694 420.397 342.657 420.505 342.642L420.383 342.3C419.796 340.684 419.847 341.355 419.851 340.43C419.409 339.286 419.377 339.786 419.481 339.041C421.031 337.8 421.489 341.565 422.006 341.84C421.12 340.563 421.824 339.52 422.661 340.214C429.001 353.991 437.19 366.937 447.774 377.134C448.931 378.077 450.103 379.005 451.316 379.881C455.818 383.933 462.723 386.538 466.938 390.127C466.938 390.186 466.91 390.26 466.867 390.334L466.963 390.424L467.061 390.52L468.527 391.248C468.958 391.626 469.346 392.049 469.69 392.517C470.057 392.955 470.38 393.438 470.653 393.95C470.79 394.574 470.488 394.833 469.913 394.566C469.661 394.477 469.41 394.373 469.159 394.277C469.173 394.299 469.18 394.314 469.195 394.329C469.277 394.457 469.835 395.794 469.192 395.577L469.116 395.546C468.763 395.413 468.412 395.264 468.067 395.123C468.476 395.65 468.849 396.222 469.18 396.704C469.533 397.083 469.747 397.528 469.834 398.033C469.819 398.315 469.669 398.434 469.396 398.397C468.979 398.256 468.57 398.107 468.159 397.952L468.276 398.182C468.566 398.771 468.978 399.759 468.246 399.429C467.62 399.228 467.018 398.998 466.414 398.746C466.363 398.85 466.263 398.887 466.062 398.79C464.143 398.085 462.289 397.224 460.515 396.207C458.955 395.034 457.381 393.883 455.815 392.718C454.341 391.804 452.919 390.787 451.561 389.644C442.474 383.58 434.519 375.877 428.208 367.298C417.653 376.742 396.55 367.719 383.496 360.326C371.949 353.719 367.411 341.502 366.237 328.33C363.798 310.597 349.772 304.527 350.747 265.618C350.726 265.625 350.704 265.625 350.675 265.625C350.165 265.469 349.67 265.261 349.202 264.994C348.721 264.756 348.268 264.474 347.844 264.133L347.319 263.383C347.047 263.227 346.802 263.064 346.616 262.9L346.519 263.029C346.212 263.412 346.418 262.836 346.436 262.722L345.525 261.442C343.364 258.394 340.994 254.974 339.063 252.239L339.002 252.35C338.958 252.434 338.935 252.495 338.956 252.521C334.361 245.7 330.039 237.461 328.838 229.485C327.421 223.34 327.975 217.009 329.211 211.318C334.514 191.388 351.883 146.288 374.689 126.958ZM499.394 402.579L499.106 402.314L499.359 402.642C499.492 402.811 499.627 402.963 499.849 403.119C499.834 403.067 499.834 403.015 499.841 402.955C499.694 402.84 499.544 402.713 499.394 402.579ZM539.721 94.864C506.015 91.8699 472.862 99.5419 440.698 108.829L438.479 109.488C420.19 114.879 400.852 119.731 385.396 131.272C363.803 148.36 352.652 175.544 342.922 200.642C334.425 219.29 338.768 240.317 351.573 253.338C352.905 240.399 355.177 227.838 358.726 215.378C359.467 213.432 358.907 212.794 360.503 212.54C362.915 246.117 351.038 270.926 374.542 310.72C384.74 329.497 372.934 343.236 401.734 353.117L402.514 353.425C408.514 355.764 415.066 357.61 420.943 356.302L420.416 355.418C419.879 354.506 419.716 354.064 420.497 353.674C420.476 353.63 420.448 353.585 420.418 353.533C419.787 352.301 419.176 351.054 418.593 349.792C418.357 349.873 418.12 349.933 417.875 349.999C418.033 350.304 418.054 350.608 417.609 350.712C416.026 351.273 414.4 351.498 412.736 351.393L412.378 351.365C410.498 351.247 409.313 350.893 408.253 350.564C407.902 350.504 407.55 350.445 407.204 350.371C403.794 349.59 400.185 347.603 397.849 345.634C371.221 330.008 373.973 276.815 406.795 271.787C407.468 238.295 422.886 181.792 448.474 149.879C471.603 120.523 534.746 107.8 578.676 112.286C579.316 112.505 579.957 112.726 580.597 112.95C587.374 113.572 593.833 116.691 600.616 118.141C595.746 114.37 590.222 111.858 584.532 109.724C573.194 102.559 560.197 98.6822 547.64 95.9479C545.039 95.2872 542.402 94.9234 539.721 94.864ZM405.293 298.692C407.058 297.701 406.856 298.658 407.262 298.38C419.956 297.31 433.644 308.793 440.739 318.365C440.179 318.967 438.663 317.185 438.397 316.903C438.361 316.94 438.318 316.97 438.275 316.985L438.472 317.273C441.348 321.537 435.647 316.519 435.113 315.485C435.02 315.537 434.926 315.567 434.818 315.544C435.27 316.002 436.651 317.197 436.888 318.046L437.254 318.361C440.705 321.414 440.418 323.711 436.501 319.375C436.593 319.576 436.629 319.761 436.565 319.91L436.699 320.003C438.626 321.393 440.21 325.271 436.184 321.291C436.603 324.198 432.193 318.579 432.052 318.618C424.422 312.43 413.189 306.412 403.619 305.603L403.289 305.564C401.533 305.331 400.703 304.793 401.319 303.606C399.156 303.075 399.663 301.975 400.687 302.01C399.161 300.974 400.534 299.983 401.42 300.37C400.811 298.629 403.252 299.788 403.475 299.545C404.742 297.527 405.083 299.211 405.293 298.692ZM378.685 190.783C384.782 188.475 402.791 195.383 401.35 204.531C400.492 206.631 397.665 207.834 395.679 206.649L393.085 204.849C388.573 201.727 384.503 198.989 379.657 196.266C377.02 194.914 375.885 192.043 378.685 190.783ZM413.373 177.189L411.018 175.605C398.311 167.013 380.348 153.994 412.205 167.464C415.836 169.073 420.661 170.024 422.642 173.597C425.754 180.181 417.564 180.624 413.373 177.189ZM414.801 138.636C413.781 134.638 426.469 139.329 430.162 140.566L430.725 140.786C434.318 142.169 438.436 143.452 440.585 146.656C443.103 151.082 438.007 151.999 434.85 149.999C428.378 145.63 421.282 142.333 414.801 138.636ZM447.064 120.013C439.923 111.955 459.036 119.674 461.899 121.817L461.98 121.88C464.117 123.434 463.683 126.781 461.676 127.764C455.966 127.876 451.764 122.958 447.064 120.013ZM479.562 111.185C468.209 102.755 483.164 106.764 488.359 110.068C491.899 113.294 488.252 118.739 479.562 111.185Z" fill="black"/>
<defs>
<clipPath id="clip0_0:3">
<rect width="745" height="690" fill="white" transform="translate(168 390)"/>
</clipPath>
<clipPath id="clip1_0:3">
<rect width="321" height="115" fill="white" transform="translate(347 228)"/>
</clipPath>
</defs>
</svg>
