<svg width="1080" height="1080" viewBox="0 0 1080 1080" fill="none" xmlns="http://www.w3.org/2000/svg">
<g clip-path="url(#clip0_0:3)">
<path fill-rule="evenodd" clip-rule="evenodd" d="M431 443C414.5 441.5 433 442 427.5 445C428.205 440.702 432 443 427.5 445C420.083 440.806 409.155 437.177 400.702 438.527C389.768 440.274 377.115 444.139 368.546 451.991C366.43 453.931 364.677 456.228 363.209 458.759C361.448 461.797 360.323 465.229 357.531 467.406C353.211 470.774 347.856 472.078 343.703 475.81C339.469 479.614 336.84 485.302 336.285 491.172C335.988 494.296 336.468 497.217 337.019 500.264C337.514 503.006 337.271 504.131 336.599 506.77C336.072 508.842 337.078 511.194 338.718 512.336C335.202 514.931 331.732 517.606 328.323 520.389C308.463 536.592 291.668 556.79 280.026 580.555L279.745 581.145L279.419 581.855C276.582 588.121 269.159 606.438 268.236 610.556C267.577 612.707 266.938 614.866 266.344 617.039C264.776 622.796 263.447 628.624 262.345 634.5L262.05 636.104C261.155 641.039 259.616 646.885 259.864 652.145C257.286 666.506 255.001 680.928 253.051 695.41C252.796 697.307 253.499 698.849 254.59 699.872C251.982 700.322 249.391 700.876 246.828 701.434L245.34 701.771L244.595 701.948C239.257 703.242 233.99 705.126 230.494 709.944C226.725 715.157 226.648 721.856 230.433 727.105C233.648 731.565 238.342 733.683 243.242 735.021C244.209 735.281 245.187 735.522 246.164 735.735C246.82 735.884 247.252 734.918 246.63 734.547L245.59 733.929L244.172 733.093C240.477 730.904 236.643 728.434 234.599 724.485C231.824 719.124 234.02 714.162 238.783 711.441C242.769 709.16 247.701 708.576 252.128 707.796L253.956 707.472C258.585 706.678 263.306 706.162 267.978 706.73C272.066 707.232 276.206 708.728 279.508 711.412L279.814 711.671L280.13 711.956C283.026 714.654 287.19 720.713 281.729 722.46C277.554 723.786 272.468 723.457 268.08 723.714L267.512 723.751C263.839 724.021 260 724.021 256.285 724.494C254.954 724.661 253.639 724.893 252.351 725.219C248.661 726.157 249.931 731.435 253.182 731.806C253.977 731.899 254.789 731.945 255.602 731.964C257.728 733.683 260.667 734.463 263.181 735.531C265.584 736.554 267.995 737.566 270.424 738.56C268.332 738.663 266.241 738.848 264.158 739.127C263.484 739.21 263.476 740.186 264.158 740.261C269.171 740.809 274.184 741.403 279.18 742.155C286.915 743.308 294.599 744.85 302.109 747.2C307.599 748.925 313.021 750.979 318.28 753.376L319.871 754.112L320.528 754.42C325.301 756.644 331.476 759.246 334.219 764.146C335.654 766.701 336.284 770.649 334.261 773.093C332.098 775.726 327.568 775.425 324.538 775.553L324.296 775.565C317.883 775.899 311.462 775.945 305.04 775.704C291.583 775.193 278.116 773.614 264.901 770.835C262.464 770.325 261.409 774.255 263.864 774.868C279.452 778.761 295.211 780.897 311.205 780.996L312.957 781C319.187 782.28 325.298 784.189 331.356 786.344L332.567 786.779C336.145 788.078 342.256 789.371 344.366 793.188C345.765 795.724 345.273 797.463 343.89 798.643C341.453 800.714 336.267 801.104 333.744 801.207C323.631 801.615 313.51 801.689 303.389 801.457C298.332 801.336 293.276 801.142 288.22 800.863C283.276 800.584 277.996 799.795 273.069 800.305C270.951 800.528 270.242 803.872 272.541 804.496C278.617 806.15 285.431 806.005 291.708 806.216L292.43 806.242C299.171 806.502 305.921 806.614 312.662 806.595C318.449 806.571 324.234 806.445 330.015 806.216L335.125 805.999L336.03 805.952C338.754 805.795 341.536 805.458 343.95 804.253C346.18 808.267 344.513 813.646 341.635 816.823C338.895 819.853 334.944 821.34 331.159 822.269C330.804 822.352 330.45 822.435 330.095 822.51C321.781 824.33 313.311 824.173 305.532 828.279C298.99 831.735 292.999 837.495 285.671 838.861C279.12 840.087 274.357 836.985 270.865 831.243C270.674 830.927 270.484 830.612 270.303 830.295C267.555 825.538 265.576 820.299 262.68 815.634C261.202 813.257 259.534 810.971 257.494 809.113C256.579 808.267 250.165 804.607 249.162 803.511C244.849 798.753 248.669 788.748 247.546 782.784C246.233 775.843 240.554 773.4 237.148 768.02C230.675 757.783 248.428 748.194 243.12 736.999C243.051 736.86 242.966 736.758 242.853 736.692C242.387 736.423 241.643 736.758 241.686 737.418C242.274 745.761 234.875 751.502 232.204 758.729C229.163 766.952 234.02 771.932 238.98 777.423C245.343 784.474 240.866 792.371 242.282 800.863C242.467 801.976 242.764 802.957 243.151 803.835C242.063 804.56 241.225 805.76 241.041 807.436C238.859 827.318 236.515 847.139 232.686 866.745L231.867 870.911L230.77 876.468C228.041 890.368 225.493 904.323 225.009 918.532C223.489 930.523 222.885 942.615 223.786 954.686C226.517 991.431 245.628 1029.88 280.347 1041.15C288.384 1043.77 296.907 1044.44 305.152 1042.61C307.978 1041.99 311.936 1040.61 315.489 1038.53C315.278 1040.98 315.11 1043.43 315.04 1045.88C313.869 1047.28 313.34 1049.39 314.007 1051.2C316.838 1050.2 319.411 1048.62 321.729 1046.45L322.113 1046.08C323.486 1040.59 323.888 1034.59 324.088 1028.81L324.14 1027.16C324.193 1025.57 324.227 1024 324.279 1022.46C324.572 1012.92 324.365 1003.36 323.908 993.828L323.571 986.811C322.799 970.444 322.17 954.116 322.593 937.704C323.077 918.816 324.581 900.011 326.465 881.227C327.443 871.536 328.548 861.865 329.681 852.194C330.588 844.408 332.109 836.028 332.135 828.001C337.953 826.663 343.665 824.098 347.244 818.85C351.038 813.285 351.599 806.168 348.229 800.463C351.487 795.67 348.816 791.154 344.788 788.107C350.977 784.381 354.425 774.217 355.342 767.148C355.965 762.297 356.163 755.041 354.236 749.587C357.001 749.691 359.767 749.997 362.533 750.508C365.731 751.112 368.868 751.994 371.963 753.091L373.53 753.648C374.32 753.933 375.21 754.268 376.094 754.661C370.501 764.601 377.685 773.614 386.898 776.187C388.652 776.679 390.441 777.023 392.247 777.301C396.318 777.906 400.476 778.091 404.513 778.491C412.239 779.252 420.009 780.34 427.762 780.693C429.465 780.777 430.562 779.922 431.081 778.732C431.098 778.714 431.106 778.704 431.106 778.686C431.288 778.371 431.41 778.035 431.453 777.683C431.426 777.711 431.392 777.73 431.367 777.748C431.738 775.517 430.493 772.805 427.762 772.48C416.569 771.123 405.221 771.059 393.994 770.065L393.275 770.001C389.75 769.674 385.599 769.072 382.809 766.674C380.216 764.444 379.984 761.544 381.021 758.925C381.038 758.989 381.055 759.064 381.064 759.13C381.142 759.649 381.807 759.631 382.023 759.268C382.671 758.21 382.836 757.169 382.671 756.165C383.45 755.2 384.391 754.344 385.411 753.685C389.932 750.731 395.877 749.923 401.021 749.049C406.647 748.093 412.316 747.655 417.995 747.368C429.17 746.8 440.381 747.777 451.374 749.931C451.833 750.016 452.023 749.328 451.573 749.17C447.287 747.646 442.905 746.365 438.471 745.352C438.575 745.332 438.678 745.315 438.781 745.286C439.17 745.184 439.448 744.674 439.317 744.265C439.301 744.199 439.274 744.135 439.248 744.079C441.133 743.15 441.919 740.028 439.637 738.765C432.525 734.816 424.176 733.032 416.37 731.406C408.877 729.854 401.306 728.767 393.725 727.802C380.908 726.185 366.932 726.222 354.599 721.874L354.092 721.691C349.069 719.829 343.074 716.056 342.723 709.685C342.205 700.05 355.524 702.559 361.073 702.792C376.258 703.414 391.426 704.548 406.543 706.294C409.629 706.647 412.715 707.009 415.8 707.381C420.527 707.947 425.264 708.543 429.983 709.173C432.619 709.527 435.316 709.992 438.029 710.438C438.876 710.661 439.706 710.819 440.536 710.902C440.597 710.911 440.648 710.893 440.692 710.865C444.641 711.46 448.609 711.914 452.463 711.785C452.905 711.776 453.181 711.031 452.714 710.808C447.736 708.543 442.195 707.205 436.639 706.154C433.198 703.396 429.042 701.184 425.627 699.048C420.942 696.112 415.575 691.792 410.259 690.036C407.866 688.01 405.152 686.384 402.654 685.279C403.371 684.08 403.63 682.416 403.501 681.015C403.025 675.988 399.283 673.182 394.961 672.197C393.622 671.9 392.074 671.677 390.424 671.594C390.39 670.656 390.001 669.736 389.137 669.048L388.882 668.84L388.7 668.685C385.799 666.153 380.041 659.024 386.976 658.503C390.657 658.224 393.769 661.123 396.699 663.084C402.784 667.162 408.669 667.366 415.618 666.353L418.742 665.871L419.261 665.796C424.285 665.087 429.382 664.99 432.187 670.497C435.195 676.388 436.249 681.758 442.317 685C448.116 688.094 454.555 688.707 459.879 692.962C465.584 697.514 469.871 703.906 474.538 709.573C484.832 722.059 496.612 733.088 508.747 743.457L510.905 745.295C522.081 754.789 533.616 764.135 546.128 771.449C546.214 771.495 546.302 771.514 546.379 771.514C546.716 771.477 546.967 771.012 546.664 770.697C532.048 755.432 514.952 743.057 499.94 728.201C493.285 721.614 486.95 714.683 480.857 707.493C475.532 701.184 470.813 694.096 464.607 688.726C461.591 686.114 458.332 684.118 454.685 682.724C451.279 681.413 447.459 680.763 444.322 678.756C438.176 674.836 438.773 665.546 432.628 661.327C427.359 657.709 420.94 659.031 415.098 659.889L414.399 659.99C410.614 660.529 406.698 660.984 403.086 659.377C399.508 657.788 396.63 654.815 393.026 653.236C388.004 651.015 380.883 651.545 378.306 657.481C375.844 663.149 379.205 668.277 383.129 672.04C377.78 673.08 373.086 675.858 372.688 681.526C368.764 681.385 364.849 681.237 360.926 681.089C347.26 680.578 333.527 679.592 319.853 679.853C320.165 678.356 320.304 676.814 320.321 675.245C320.329 674.372 320.294 673.498 320.234 672.607C320.131 671.082 319.197 670.162 317.814 670.004L314.725 669.65L313.692 669.54C307.906 668.952 301.436 668.828 297.027 672.94C294.659 675.161 292.749 680.271 293.907 683.681C291.211 684.675 288.643 685.947 286.301 687.555C281.66 685.882 276.785 686.069 272.119 687.814L271.564 688.027C268.247 689.336 263.545 691.816 261.742 695.354C266.118 663.47 272.015 631.859 279.428 600.63C284.16 588.158 290.139 576.237 297.39 565.235C315.653 537.512 341.963 518.448 365.592 496.531C367.677 498.998 369.923 501.345 372.023 503.603L372.914 504.566C377.192 509.223 381.654 513.68 386.215 518.014C395.748 527.072 405.781 535.433 415.743 543.927C435.825 561.053 453.982 579.237 469.088 601.595C469.36 601.998 470.112 601.763 469.902 601.227C459.541 574.752 438.061 554.623 418.549 535.947C408.288 526.126 397.787 516.541 387.921 506.257C383.321 501.462 378.865 496.502 374.662 491.302L373.616 489.997C370.868 486.539 364.432 475.981 360.179 483.599C359.288 485.192 359.327 487.23 360.179 488.826C361.387 491.093 362.922 493.254 364.599 495.331C358.635 498.818 352.795 502.5 347.081 506.397C347.41 504.519 347.328 502.444 347.023 500.367L346.923 499.708L346.507 497.132C345.91 493.336 345.603 489.807 347.844 486.104C350.646 481.471 355.929 480.027 360.138 477.35C364.987 474.265 367.52 470.139 370.116 464.901C375.088 454.873 386.321 450.852 395.976 447.627L397.191 447.221C406.112 444.249 415.763 442.659 424.683 445.515C423.846 449.701 422.751 453.828 421.383 457.848C419.927 462.127 416.6 466.885 416.94 471.507C417.176 474.706 420.745 478.125 423.707 475.68C427.902 472.221 428.741 466.586 429.865 461.218C430.953 456.026 431.974 445 431.942 445.397C432.227 440.278 436.408 445.397 436 444.5H433L432.5 443L434.456 446.5L433.5 444C433.01 440.226 440.975 446.959 439 444C438.81 443.716 439 448 431 443ZM557 397.5C556.937 397.802 556.54 398.702 556.5 399C556.211 400.273 557.368 400.211 556.5 400.5C557.868 403.211 552.423 402.561 552.5 403C552.655 404.447 552.062 401.877 552.5 403.5C553.433 406.953 556.306 409.64 557.5 413C561.5 419.5 565.592 426.152 568 432C571.5 440.5 575.628 453.071 583 463C581.231 464.569 580.874 464.63 579.141 466.233C570.765 473.981 562.615 482.081 554.722 490.394C540.704 505.159 526.967 520.199 513.553 535.599C506.937 543.194 500.443 550.889 493.985 558.635L493.774 558.896L493.545 559.189C491.252 562.17 486.667 569.28 483.247 568.138C481.52 567.56 479.702 564.79 478.525 563.469L476.356 561.039C475.636 560.226 474.919 559.409 474.215 558.58C461.6 543.723 449.663 528.295 438.455 512.169C432.985 504.301 427.698 496.285 422.603 488.13C419.985 483.937 417.414 479.707 414.896 475.442C412.46 471.317 410.49 466.883 406.901 463.804C404.266 461.545 400.616 463.617 401.28 467.321C402.326 473.154 406.082 478.088 409.04 483.018C412.01 487.973 415.051 492.879 418.16 497.733C424.144 507.08 430.386 516.229 436.852 525.195C442.42 532.916 448.23 540.438 454.196 547.808L455.827 549.815C462.245 557.679 468.544 566.028 475.635 573.206C481.985 579.634 488.921 577.761 494.705 571.514C502.022 563.616 508.814 555.074 515.854 546.888C529.921 530.529 544.136 514.295 558.497 498.233L563.218 492.947C568.723 486.771 574.205 480.556 579.544 474.227L580.233 473.402C586.321 466.04 592.512 456.817 601.168 453.074C601.794 452.803 601.564 451.848 600.888 451.982C595.347 453.083 590.722 456.084 586.417 459.669C582.549 452.787 579.097 445.533 576.087 438.114L578.018 437.213C591.833 430.796 607.404 424.326 622.236 425.366C628.213 425.784 634.591 428.219 638.718 433.042C642.455 437.412 644.321 443.304 647.751 447.957C651.679 453.287 656.803 455.686 663.091 455.903L666.148 456.002C669.665 456.125 673.037 456.323 676.604 457.155C686.269 459.407 696.458 463.061 704.563 469.301C707.504 471.565 710.539 474.677 711.961 478.106C713.37 481.504 713.776 485.479 713.913 489.146C713.98 490.934 713.481 493.294 713.898 495.005C713.85 494.809 713.829 494.913 713.823 495.117C712.527 496.215 711.644 498.041 711.549 499.86C703.469 495.334 695.105 491.367 686.579 487.791C677.085 483.81 667.297 480.619 657.507 477.598C647.925 474.643 637.896 473.42 628.129 471.313C626.885 471.044 626.453 472.85 627.612 473.329C637.878 477.567 647.811 482.592 658.163 486.579C668.51 490.566 678.779 494.88 688.826 499.676C708.245 508.949 727.003 520.748 742.302 536.757C757.244 552.393 768.77 571.387 779.489 590.485C790.284 609.718 799.918 629.651 808.505 650.126C825.492 690.632 838.23 733.221 846.617 776.723C854.778 819.057 859.338 862.902 857.82 906.171C857.099 926.722 854.764 947.288 849.332 967.053C846.738 976.496 843.49 985.722 839.386 994.531C835.058 1003.82 829.228 1012.09 825.276 1021.53C824.951 1022.31 824.827 1023.06 824.845 1023.75C807.991 1039.45 781.611 1028.87 763.37 1019.5C721.4 997.926 680.207 974.318 641.054 947.227C602.411 920.488 565.791 890.646 530.035 859.672C532.8 856.607 535.238 853.169 537.381 850.057C541.806 843.628 545.134 836.344 547.424 828.743C550.104 819.843 550.934 810.32 550.173 801.021L549.957 798.391C549.228 789.609 548.387 780.698 546.595 772.117C546.578 772.006 546.5 771.959 546.413 771.959C546.328 771.959 546.24 772.016 546.206 772.117C541.374 788.739 540.985 806.604 535.558 823.012C533.372 829.608 529.984 835.981 525.92 841.454C524.166 843.822 522.109 845.876 520.009 847.883C519.87 846.86 519.681 845.848 519.396 844.854L519.169 844.067C518.888 843.112 518.54 842.049 518.056 841.109C518.739 840.896 519.404 840.664 520.06 840.403C520.58 840.199 520.692 839.298 520.06 839.15C518.341 838.722 516.569 838.509 514.762 838.416C514.477 838.369 514.201 838.36 513.925 838.378C510.545 838.266 507.105 838.527 503.846 838.583C498.202 838.676 492.576 838.786 486.941 839.057C476.154 839.557 463.977 841.779 453.362 839.084C443.717 836.632 434.209 829.719 426.475 823.215C419.716 817.53 414.503 810.776 408.895 804.04C409.297 804.109 409.697 804.173 410.095 804.232L413.712 804.765C418.278 805.42 423.697 805.934 427.321 803.576C428.705 802.675 428.306 800.631 426.897 800.072C423.199 798.615 418.609 799.823 414.668 799.618C411.574 799.459 408.444 799.107 405.393 798.42C404.391 798.197 403.398 797.937 402.412 797.63C395.187 795.391 386.698 787.512 392.437 778.909C392.654 778.584 392.412 778.287 392.119 778.23C391.988 778.203 391.85 778.23 391.737 778.333C385.204 784.148 388.601 794.572 394.781 799.042C396.906 800.584 399.309 801.662 401.798 802.452C401.323 803.389 401.237 804.542 401.807 805.638C406.647 814.91 414.84 823.057 422.516 829.608C430.398 836.334 439.49 842.679 449.265 845.653C460.554 849.071 472.956 846.498 484.408 845.411C490.615 844.825 496.802 844.128 502.999 843.357C504.659 843.154 506.379 842.996 508.125 842.819C506.482 845.142 505.177 847.818 504.322 849.425C501.538 854.645 504.105 861.521 509.499 863.118C510.061 863.286 510.64 863.379 511.21 863.397C512.663 866.528 516.12 868.833 519.318 867.652C520.709 867.142 522.049 866.445 523.336 865.609C543.449 884.599 564.625 902.417 586.404 919.123C626.793 950.098 669.128 978.388 713.025 1003.26C722.912 1008.86 732.875 1014.31 742.923 1019.55L751.571 1024.03C761.143 1028.98 770.94 1033.91 781.106 1036.98C783.088 1037.58 785.163 1038.07 787.289 1038.44C787.317 1038.64 787.324 1038.84 787.311 1039.02C789.223 1039.3 790.891 1039.34 792.315 1039.15L792.639 1039.1C805.1 1040.04 818.428 1036.77 826.445 1026.98C827.781 1027.99 829.729 1028.1 831.448 1026.65C840.094 1019.36 845.248 1008.26 849.77 997.66C854.356 986.908 857.951 975.703 860.592 964.223C865.868 941.296 867.961 917.646 868.071 894.062C868.47 803.182 847.296 711.504 810.518 629.915C801.191 609.222 790.909 588.916 779.495 569.464C768.112 550.065 754.894 532.037 737.967 517.889C733.099 513.822 728.035 510.103 722.812 506.677C726.318 504.809 727.71 500.059 727.956 495.839C728.5 486.468 727.461 475.671 722.357 467.764C715.196 456.671 702.377 449.831 690.492 446.505C684.287 444.77 677.868 443.758 671.468 443.416C668.168 443.239 664.74 443.822 661.479 443.439C658.603 443.103 656.824 441.258 655.17 438.832C650.932 432.614 648.174 426.092 642.095 421.534C635.858 416.858 627.776 415.069 620.263 415.554C611.51 416.119 603.525 419.826 595.816 424.086C588.858 427.931 582.104 432.189 575.523 436.732C574.316 433.693 573.18 430.631 572.123 427.559C570.073 421.602 567.5 415.5 565.5 409.5C563 403.5 562 400 559 394.563C559 398.063 558.5 395 557 397.5ZM250.041 810.315L250.073 810.322C259.034 816.03 263.319 830.295 267.537 836.529C267.192 838.619 266.95 840.747 266.475 842.726C265.385 847.27 263.96 851.775 262.308 856.105C259.404 863.751 255.765 871.035 252.403 878.448C249.698 884.41 247.047 890.481 244.985 896.757C245.209 896.997 245.415 897.283 245.591 897.637C247.828 902.14 249.579 901.254 253.706 900.271L253.708 900.262C256.069 892.496 259.473 885.203 262.533 877.751L263.277 875.932L264.013 874.111C266.569 867.733 268.902 861.297 270.26 854.46C271.125 850.103 271.479 845.624 271.53 841.174C273.769 843.154 276.458 844.575 279.845 845.122C287.094 846.3 293.66 841.419 299.566 837.504L300.898 836.628C304.595 834.21 308.262 831.976 312.525 830.834C317.365 829.534 322.369 829.534 327.286 828.873C327.875 828.79 328.47 828.706 329.068 828.605C327.149 835.433 326.259 842.847 325.117 849.685C323.527 859.273 322.23 868.944 320.986 878.588C318.565 897.281 316.88 916.121 316.025 934.973C315.197 953.225 315.614 971.409 316.229 989.655L316.535 998.553C316.781 1005.8 316.983 1013.05 316.864 1020.3C316.535 1020.32 316.207 1020.38 315.878 1020.46C312.472 1021.32 310.148 1025.05 307.036 1026.72C300.468 1030.23 292.533 1030.18 285.54 1028.41C269.637 1024.36 256.413 1012.43 247.702 997.851C237.243 980.366 233.406 959.787 233.528 939.199C233.671 916.029 237.162 893.875 242.022 871.506L242.334 870.078C246.424 851.443 248.986 810.492 250.041 810.315ZM695.366 763.564C695.275 769.796 697.633 776.462 698.929 782.517C700.323 789.042 701.715 795.567 703.126 802.089L704.394 807.932C705.451 812.801 706.492 817.674 707.425 822.574C708.193 826.601 708.515 831.909 709.772 836.349C694.814 829.846 679.832 823.408 664.875 816.926C646.448 808.937 627.935 801.169 609.465 793.309C591.063 785.487 572.766 776.586 553.993 769.897C549.524 768.299 546.499 775.964 550.778 778.091C569.845 787.596 590.018 795.037 609.551 803.363L637.806 815.42C663.709 826.468 689.629 837.462 715.679 848.077C733.423 855.306 751.098 862.748 768.954 869.613C777.468 872.884 786.058 875.978 794.529 879.368C801.625 882.211 809.3 886.43 811.927 894.623C812.066 895.051 812.61 894.875 812.55 894.437C811.487 886.503 806.006 881.542 799.827 877.789C791.626 872.794 782.618 869.16 773.961 865.155L772.783 864.606C755.106 856.319 737.285 848.367 719.412 840.548C719.59 840.084 719.694 839.586 719.702 839.066L719.753 839.08C720.078 835.529 718.563 832.361 717.473 829.058L714.347 819.578C712.264 813.265 710.395 806.874 708.47 800.504C706.457 793.846 704.425 787.195 702.397 780.543C700.679 774.908 699.524 768.192 696.585 763.156C696.23 762.549 695.253 762.89 695.366 763.564ZM351.124 749.551L351.346 750.761C351.606 752.176 351.85 753.602 351.91 755.033C352.084 758.777 351.686 762.52 350.761 766.135C349.853 769.711 348.584 773.168 346.776 776.336C345.065 779.317 342.584 781.659 341.003 784.716C340.839 785.04 340.736 785.365 340.693 785.682C340.087 785.413 339.49 785.171 338.911 784.975C334.088 783.332 329.163 781.956 324.167 780.925L324.959 780.868L325.471 780.824C333.818 780.065 341.693 777.129 339.992 766.654C339.029 760.733 334.705 756.762 330.071 753.948L329.49 753.602C329.241 753.452 328.98 753.304 328.731 753.174C332.922 752.413 335.964 751.474 341.107 750.545C344.444 749.941 347.788 749.607 351.124 749.551ZM732.446 620.521C724.239 638.346 718.064 657.299 713.406 676.528C711.157 685.814 709.248 695.191 707.713 704.643L707.209 707.8L706.923 709.513C705.489 717.938 703.668 727.065 705.774 735.286C706.461 737.972 710.61 739.035 711.771 736.13C715.275 727.359 714.782 717.278 715.798 707.893C716.865 698.045 718.322 688.243 720.137 678.522C723.623 659.844 728.517 641.603 733.971 623.499L734.579 621.488C735.043 620.148 733.025 619.264 732.446 620.521ZM416.976 700.264C419.422 701.5 421.868 702.634 424.029 703.766C424.192 703.86 424.365 703.943 424.539 704.037C422.093 703.591 419.638 703.173 417.183 702.781C417.208 701.927 417.131 701.082 416.976 700.264ZM321.268 691.336C321.636 691.465 321.96 691.672 322.243 691.956L322.38 692.105C322.718 692.442 322.956 692.84 323.095 693.3C323.311 693.744 323.412 694.222 323.393 694.733L323.27 695.721C323.106 696.35 322.809 696.896 322.38 697.36L321.681 697.941C321.209 698.235 320.705 698.402 320.168 698.44L319.936 698.449L319.236 698.45C318.836 698.435 318.46 698.329 318.107 698.129C317.739 698 317.414 697.794 317.132 697.509L316.994 697.36C316.656 697.023 316.419 696.625 316.279 696.165C316.093 695.785 315.994 695.38 315.981 694.95L315.981 694.733L316.105 693.744C316.248 693.193 316.493 692.706 316.84 692.282L316.994 692.105L317.693 691.523C318.165 691.23 318.67 691.063 319.206 691.025L319.438 691.017H319.936C320.413 690.997 320.857 691.104 321.268 691.336ZM343.756 690.079C345.593 690.442 346.635 692.835 346.17 694.649C345.657 696.659 343.881 697.552 342.096 697.277L341.918 697.246C339.828 696.833 337.781 696.992 335.79 697.781C334.039 698.476 332.002 697.004 331.538 695.185C331.007 693.11 332.194 691.311 333.953 690.614C337.107 689.362 340.491 689.433 343.756 690.079ZM707.897 558.102C703.715 564.69 701.104 573.447 698.528 580.976L698.27 581.724C695.532 589.636 692.891 597.61 690.428 605.627C685.511 621.63 679.103 638.376 677.919 655.282C677.7 658.401 682.142 659.652 683.429 656.887C687.129 648.937 689.119 640.65 691.308 632.127C693.397 623.998 695.572 615.898 697.748 607.796C699.924 599.7 702.028 591.579 704.171 583.472C706.255 575.585 709.156 566.816 709.633 558.607C709.696 557.541 708.377 557.344 707.897 558.102ZM613.507 505.066C607.925 509.231 603.352 515.323 598.628 520.533C593.835 525.82 589.107 531.155 584.422 536.553C576.594 545.574 568.908 554.743 560.97 563.655C545.149 581.414 527.252 597.756 505.418 606.103C500.135 608.122 502.449 617.236 507.745 615.174C530.078 606.47 548.578 590.378 564.897 572.173C573.349 562.745 581.104 552.67 588.666 542.416C592.205 537.618 595.717 532.804 599.179 527.944L601.25 525.023C605.604 518.848 610.931 512.694 614.116 505.722C614.295 505.33 613.903 504.772 613.507 505.066Z" fill="black"/>
</g>
<path fill-rule="evenodd" clip-rule="evenodd" d="M617.385 126.838C597.428 109.674 492.281 90.8327 441.276 102.432L439.748 102.793C435.68 103.742 431.7 104.952 427.802 106.44C415.156 110.802 402.245 116.76 392.329 125.503C384.038 132.674 356.898 145.795 366.904 161.265C364.426 167.406 364.022 174.717 366.7 180.234C367.167 182.188 367.969 183.948 368.948 185.758C363.37 196.127 359.294 207.623 356.155 218.479C351.502 245.466 349.745 273.23 351.849 300.053C354.888 351.112 366.778 411.245 414.589 439.505C443.573 457.548 485.662 453.888 513.126 424.937C514.627 422.741 522.106 416.46 519.323 415.783C518.611 416.708 517.875 417.612 517.122 418.503C517.15 418.409 517.149 418.319 517.123 418.224L517.836 417.432C519.175 415.912 520.889 413.732 518.743 414.346C518.659 414.468 518.563 414.575 518.471 414.698C518.037 415.023 517.712 415.299 517.462 415.539L517.334 415.665L517.372 415.616C518.492 414.147 519.105 412.703 517.313 413.77L517.077 413.917C516.331 414.882 515.568 415.812 514.786 416.721C514.791 416.622 514.766 416.527 514.703 416.428L515.429 415.567C516.138 414.715 516.017 414.724 515.567 414.141C517 411.626 514.016 413.341 513.891 414.278C511.886 414.019 510.548 417.86 509.334 418.438C458.473 466.525 374.385 437.265 363.437 319.112L363.217 316.801C359.681 279.024 358.842 239.907 370.953 204.121C372.134 200.673 373.505 197.295 375.057 194.003C376.108 191.546 377.255 189.14 378.512 186.782C382.637 186.015 386.665 184.83 390.59 183.234C391.943 182.74 393.277 182.21 394.603 181.613C414.788 180.622 434.536 179.773 454.78 178.81L461.108 178.548C478.272 177.872 496.087 177.792 510.938 186.879C525.432 195.051 527.452 213.921 540.099 223.231C557.736 232.673 558.9 242.716 563.779 258.82C564.829 271.233 558.081 290.126 574.432 293.699C572.159 297.767 575.687 295.56 575.842 294.2C575.873 294.204 575.904 294.209 575.926 294.206C574.006 298.858 577.212 295.721 577.375 294.274C577.556 294.203 577.729 294.049 577.896 293.844C575.902 297.952 579.492 294.847 579.19 294.168C583.082 286.597 592.491 284.508 599.399 285.69C599.507 285.935 599.808 285.926 599.98 285.773C629.165 288.978 627.914 348.658 598.071 345.998C596.792 345.873 596.884 346.469 596.642 346.552C597.134 344.713 595.304 345.631 595.362 346L595.246 346.007C595.153 346.008 595.189 345.994 595.123 346.025C595.401 342.34 592.268 347.963 592.581 348.148C592.461 348.092 592.331 348.068 592.217 348.065L592.308 347.708C592.75 346.024 592.768 346.703 592.667 345.776C593.007 344.581 593.092 345.079 592.907 344.343C591.167 343.265 591.083 347.091 590.574 347.423C591.362 346.047 590.521 345.077 589.724 345.862C584.57 360.362 577.406 374.226 567.469 385.594C566.364 386.664 565.244 387.721 564.074 388.73C559.817 393.279 552.912 396.636 548.906 400.689C548.912 400.748 548.949 400.82 549.002 400.89L548.911 400.99L548.819 401.097L547.372 401.984C546.963 402.41 546.604 402.877 546.295 403.383C545.959 403.862 545.674 404.38 545.443 404.924C545.366 405.564 545.706 405.792 546.276 405.462C546.529 405.345 546.778 405.214 547.03 405.09C547.017 405.114 547.012 405.129 546.998 405.146C546.925 405.284 546.485 406.685 547.13 406.397L547.207 406.358C547.559 406.186 547.909 406 548.253 405.821C547.882 406.394 547.554 407.007 547.261 407.527C546.933 407.944 546.757 408.414 546.719 408.93C546.764 409.211 546.932 409.314 547.212 409.247C547.63 409.061 548.041 408.868 548.451 408.667L548.353 408.911C548.114 409.533 547.788 410.568 548.514 410.158C549.144 409.89 549.746 409.594 550.347 409.276C550.411 409.374 550.519 409.401 550.718 409.282C552.638 408.368 554.475 407.305 556.214 406.093C557.712 404.749 559.228 403.425 560.734 402.088C562.171 401.013 563.543 399.84 564.835 398.547C573.647 391.486 581.112 382.903 586.778 373.62C598.729 381.952 619.721 370.629 632.517 361.808C643.829 353.937 647.274 341.196 647.122 327.861C647.812 309.815 661.757 302.216 656.694 263.303C656.717 263.308 656.74 263.306 656.77 263.303C657.284 263.091 657.777 262.829 658.234 262.511C658.71 262.221 659.151 261.889 659.557 261.501L660.024 260.692C660.291 260.507 660.527 260.317 660.705 260.133L660.819 260.252C661.177 260.602 660.903 260.047 660.873 259.935L661.686 258.552C663.615 255.263 665.722 251.578 667.444 248.627L667.519 248.732C667.573 248.812 667.603 248.87 667.585 248.899C671.65 241.563 675.283 232.835 675.701 224.707C676.535 218.392 675.301 212.103 673.423 206.529C665.839 187.116 643.097 143.763 617.385 126.838ZM516.474 416.676L516.746 416.379L516.517 416.735C516.396 416.919 516.271 417.086 516.057 417.266C516.067 417.212 516.062 417.16 516.049 417.101C516.189 416.97 516.332 416.826 516.474 416.676ZM442.547 112.45C477.262 105.813 512.512 109.932 546.903 115.776L549.277 116.198C568.844 119.632 589.445 122.412 606.707 132.318C630.925 147.125 645.341 173.183 658.065 197.302C668.835 215.086 666.51 236.64 654.558 251.078C651.827 238.246 648.16 225.896 643.174 213.784C642.202 211.912 642.718 211.212 641.032 211.129C642.02 245.061 656.944 268.657 636.66 311.097C628.016 331.027 641.714 343.531 612.814 356.545L612.036 356.937C606.044 359.93 599.427 362.488 593.184 361.811L593.639 360.866C594.102 359.895 594.225 359.434 593.373 359.127C593.39 359.08 593.416 359.032 593.441 358.977C593.969 357.673 594.474 356.357 594.948 355.028C595.202 355.084 595.455 355.118 595.716 355.159C595.583 355.481 595.593 355.789 596.066 355.845C597.77 356.237 599.483 356.287 601.202 356.002L601.57 355.936C603.512 355.614 604.707 355.131 605.774 354.687C606.133 354.59 606.492 354.492 606.844 354.381C610.306 353.23 613.85 350.848 616.073 348.622C642.118 330.081 633.723 277.036 599.092 275.533C594.907 242.021 573.005 187.023 543.094 157.779C516.004 130.836 449.062 124.886 403.878 134.122C403.235 134.41 402.593 134.701 401.951 134.994C394.973 136.349 388.585 140.174 381.687 142.359C386.356 138.052 391.835 134.938 397.526 132.184C408.562 123.776 421.666 118.487 434.43 114.391C437.064 113.448 439.767 112.799 442.547 112.45ZM603.452 302.351C601.515 301.548 601.825 302.486 601.374 302.251C588.071 302.547 575.042 315.538 568.664 325.902C569.309 326.445 570.699 324.495 570.946 324.183C570.987 324.216 571.035 324.242 571.081 324.252L570.906 324.562C568.361 329.148 573.764 323.502 574.211 322.407C574.313 322.449 574.414 322.469 574.523 322.435C574.101 322.943 572.791 324.29 572.633 325.167L572.286 325.522C569.017 328.956 569.554 331.228 573.174 326.458C573.098 326.669 573.08 326.859 573.163 327.001L573.033 327.108C571.175 328.711 569.932 332.77 573.702 328.344C573.57 331.305 577.567 325.194 577.718 325.219C585.003 318.191 596.05 310.945 605.911 309.102L606.25 309.027C608.05 308.604 608.857 307.975 608.093 306.851C610.285 306.085 609.645 305.036 608.584 305.182C610.062 303.979 608.531 303.133 607.652 303.616C608.103 301.805 605.687 303.231 605.43 303.011C603.904 301.124 603.724 302.849 603.452 302.351ZM619.875 191.272C613.299 189.616 595.302 198.484 597.751 207.502C598.862 209.516 601.924 210.418 603.866 209.015L606.373 206.931C610.738 203.313 614.683 200.128 619.434 196.875C622.034 195.235 622.915 192.234 619.875 191.272ZM582.412 181.38L584.695 179.539C597.005 169.552 614.318 154.559 582.614 171.502C579.008 173.507 574.094 174.982 572.407 178.778C569.858 185.716 578.415 185.277 582.412 181.38ZM576.917 142.874C577.56 138.755 564.864 144.828 561.154 146.466L560.593 146.747C557.003 148.521 552.857 150.252 550.957 153.696C548.801 158.406 554.192 158.776 557.264 156.431C563.535 151.351 570.566 147.28 576.917 142.874ZM541.451 127.678C548.034 118.828 528.976 128.629 526.223 131.087L526.145 131.159C524.087 132.947 524.885 136.257 527.073 137.026C533.019 136.523 536.874 131.138 541.451 127.678ZM506.761 122.33C517.682 112.652 502.558 118.285 497.504 122.158C494.16 125.775 498.517 130.842 506.761 122.33Z" fill="black"/>
<path fill-rule="evenodd" clip-rule="evenodd" d="M446.361 399.687C451.559 397.124 456.073 393.158 459.226 388.284C460.323 386.59 460.512 384.873 460.142 383.343C459.727 381.622 458.569 380.12 457.072 379.166C455.57 378.209 453.751 377.817 452.049 378.212C450.571 378.555 449.142 379.476 448.089 381.246L447.867 381.6C445.996 384.539 443.457 387.025 440.48 388.727C437.612 390.367 434.335 391.276 430.864 391.145C424.254 390.897 419.476 387.72 414.32 383.307C413.68 382.749 413.039 382.172 412.393 381.585C411.973 381.041 411.421 380.713 410.824 380.563C410.162 380.397 409.431 380.463 408.778 380.744C408.149 381.015 407.602 381.482 407.257 382.074C406.928 382.637 406.769 383.314 406.893 384.069C407.698 388.979 410.634 393.197 414.595 396.386C418.996 399.928 424.648 402.185 429.852 402.738C435.586 403.347 441.297 402.183 446.361 399.687ZM421.4 324.87C415.649 328.94 407.103 338.071 414.244 346.577C422.454 353.935 432.755 344.038 437.858 339.529C442.637 335.974 448.878 343.745 444.501 347.808C407.546 379.364 387.818 328.311 418.039 320.834C421.367 320.01 422.893 323.632 421.4 324.87ZM488.958 286.342C487.687 278.214 474.976 277.288 474.325 285.473C473.742 292.805 475.554 299.366 479.334 305.649C482.945 311.65 490.645 308.155 490.823 302.433C491.062 294.763 489.748 291.399 488.958 286.342ZM392.984 289.812C391.062 287.668 388.416 286.303 385.449 287.405C376.179 290.849 379.958 303.966 383.766 310.205C385.835 313.593 391.744 314.053 394.156 310.757C398.085 305.381 399.399 295.129 393.557 290.554C393.39 290.307 393.206 290.06 392.984 289.812ZM475.446 251.363L473.93 251.215C469.242 250.765 463.429 250.429 460.427 254.359C458.835 256.442 458.507 260.121 460.98 261.819C465.331 264.808 469.777 263.195 474.719 263.109C478.792 263.039 482.739 263.416 486.727 264.232C495.478 266.024 502.79 269.937 510.47 274.258C511.478 274.825 512.368 273.536 511.844 272.68C507.011 264.794 498.323 258.666 489.817 255.168C485.276 253.301 480.351 251.838 475.446 251.363ZM398.965 253.337L397.837 253.654C385.563 257.158 369.75 263.514 364.746 276.08C364.648 277.812 364.913 278.162 365.124 278.387L365.195 278.463C365.369 278.656 365.517 278.929 366.285 279.107C366.489 279.042 366.696 278.975 366.904 278.904C369.558 278.001 371.627 276.875 373.625 275.717L375.791 274.454C378.304 272.994 380.844 271.579 383.564 270.472C389.37 268.109 395.388 266.302 401.547 265.119C402.882 264.863 404.146 264.316 405.112 263.469C406.029 262.665 406.695 261.596 406.934 260.223C407.243 258.446 407.019 257.135 405.957 255.631C405.159 254.502 404.082 253.758 402.88 253.374C401.655 252.983 400.292 252.97 398.965 253.337Z" fill="black"/>
<g clip-path="url(#clip1_0:3)">
<path fill-rule="evenodd" clip-rule="evenodd" d="M359.27 328.935C369.786 338.937 386.137 340.73 398.503 333.911C430.249 316.356 410.369 271.207 383.949 260.786C380.706 260.186 376.302 258.498 372.398 258.35C372.033 258.192 371.316 258.791 370.352 258.358C342.605 264.006 340.026 311.577 359.27 328.935ZM465.77 323.108C477.842 337.756 498.341 340.92 514.19 332.377C545.535 315.924 530.693 275.663 507.179 261.309C458.721 246.028 443.268 296.12 465.77 323.108ZM533.363 283.03C533.392 283.012 533.421 283.002 533.451 282.984C533.273 282.917 533.095 282.849 532.917 282.779C532.985 282.932 533.058 283.083 533.125 283.236C533.204 283.166 533.272 283.087 533.363 283.03ZM333.025 282.328C335.674 282.12 339.538 282.282 341.892 284.093C345.705 263.929 364.188 244.06 382.62 255.97C396.672 259.621 407.667 269.348 414.564 282.903C424.417 275.375 440.991 276.91 450.719 285.027C454.917 263.45 468.847 254.888 486.049 252.4C504.652 247.532 525.064 265.84 532.219 281.272C537.05 280.277 544.207 278.007 549.061 280.894C578.175 270.034 629.893 261.164 636.33 265.372C640.792 266.815 644.052 277.646 638.07 278.728C632.75 278.346 638.031 270.602 632.67 270.236C604.296 270.624 577.397 278.986 549.684 283.822C547.484 287.651 539.527 289.515 535.112 288.404C544.06 314.84 530.933 334.378 509.487 341.645C476.271 352.807 444.131 322.387 450.238 287.552C439.524 282.855 427.732 284.046 416.781 287.861C441.485 360.768 330.426 366.38 341.405 286.698C330.39 293.825 327.085 284.067 333.025 282.328Z" fill="black"/>
</g>
<defs>
<clipPath id="clip0_0:3">
<rect width="707" height="681" fill="white" transform="matrix(-1 0 0 1 894 399)"/>
</clipPath>
<clipPath id="clip1_0:3">
<rect width="312.433" height="118.987" fill="white" transform="matrix(-0.996752 0.0805296 0.0805296 0.996752 648.418 223)"/>
</clipPath>
</defs>
</svg>
